# Blender v2.81 (sub 16) OBJ File: 'switch.blend'
# www.blender.org
mtllib castle_gates_switch2.mtl
o Lever_Cube
v 0.500000 -0.375000 -0.500000
v 0.500000 -0.500000 -0.500000
v 0.500000 -0.375000 0.500000
v 0.500000 -0.500000 0.500000
v -0.500000 -0.375000 -0.500000
v -0.500000 -0.500000 -0.500000
v -0.500000 -0.375000 0.500000
v -0.500000 -0.500000 0.500000
v 0.062500 -0.375000 0.312500
v 0.062500 -0.062500 0.312500
v 0.062500 -0.375000 -0.312500
v 0.062500 -0.062500 -0.312500
v 0.187500 -0.375000 0.312500
v 0.187500 -0.062500 0.312500
v 0.187500 -0.375000 -0.312500
v 0.187500 -0.062500 -0.312500
v -0.187500 -0.375000 0.312500
v -0.187500 -0.062500 0.312500
v -0.187500 -0.375000 -0.312500
v -0.187500 -0.062500 -0.312500
v -0.062500 -0.375000 0.312500
v -0.062500 -0.062500 0.312500
v -0.062500 -0.375000 -0.312500
v -0.062500 -0.062500 -0.312500
v -0.062500 -0.426777 -0.000000
v -0.062500 -0.250000 0.176777
v -0.062500 -0.250000 -0.176777
v -0.062500 -0.073223 0.000000
v 0.062500 -0.426777 -0.000000
v 0.062500 -0.250000 0.176777
v 0.062500 -0.250000 -0.176777
v 0.062500 -0.073223 0.000000
v -0.062500 -0.205806 0.132583
v -0.062500 0.147748 0.486136
v -0.062500 -0.117417 0.044194
v -0.062500 0.236136 0.397748
v 0.062500 -0.205806 0.132583
v 0.062500 0.147748 0.486136
v 0.062500 -0.117417 0.044194
v 0.062500 0.236136 0.397748
vt 0.437500 0.312500
vt 0.562500 -0.000000
vt 0.437500 -0.000000
vt 0.812500 0.437500
vt 0.187500 0.125000
vt 0.812500 0.125000
vt 0.437500 0.312500
vt 0.312500 -0.000000
vt 0.437500 -0.000000
vt 0.187500 0.437500
vt 0.812500 0.125000
vt 0.187500 0.125000
vt 0.312500 0.937500
vt 0.437500 0.937500
vt 0.312500 0.312500
vt 0.437500 -0.000000
vt 0.312500 -0.000000
vt 0.562500 0.312500
vt 0.437500 0.000000
vt 0.562500 0.000000
vt 0.312500 0.937500
vt 0.437500 0.312500
vt 0.437500 0.937500
vt 0.562500 0.312500
vt 0.187500 0.437500
vt 0.312500 0.312500
vt 0.812500 0.437500
vt 0.437500 0.312500
vt 0.437500 0.312500
vt 0.312500 0.312500
vt 0.187500 0.437500
vt 0.812500 0.125000
vt 0.187500 0.125000
vt 0.812500 0.437500
vt 0.187500 0.125000
vt 0.812500 0.125000
vt 0.812500 0.437500
vt 0.187500 0.437500
vt 0.875000 -0.000000
vt 1.000000 0.250000
vt 0.875000 0.250000
vt 0.875000 0.500000
vt 1.000000 0.750000
vt 0.875000 0.750000
vt 1.000000 0.750000
vt 0.875000 1.000000
vt 0.875000 0.750000
vt 0.875000 0.500000
vt 1.000000 0.250000
vt 1.000000 0.500000
vt 1.000000 -0.000000
vt 1.000000 0.500000
vt 1.000000 1.000000
vt 0.875000 0.250000
vt 0.375000 0.250000
vt 0.500000 0.750000
vt 0.375000 0.750000
vt 0.250000 0.250000
vt 0.375000 0.750000
vt 0.250000 0.750000
vt 0.625000 0.250000
vt 0.750000 0.750000
vt 0.625000 0.750000
vt 0.500000 0.250000
vt 0.625000 0.750000
vt 0.500000 0.750000
vt 0.750000 0.875000
vt 0.625000 0.750000
vt 0.750000 0.750000
vt 0.500000 0.250000
vt 0.375000 0.250000
vt 0.750000 0.250000
vt 0.625000 0.250000
vt 0.625000 0.875000
vt 1.000000 1.000000
vt -0.000000 0.000000
vt 1.000000 0.000000
vt 1.000000 0.125000
vt 0.000000 0.125000
vt 1.000000 0.125000
vt 0.000000 0.000000
vt 1.000000 0.000000
vt 0.000000 1.000000
vt 1.000000 1.000000
vt 1.000000 0.125000
vt 0.000000 0.000000
vt 1.000000 0.000000
vt 1.000000 0.125000
vt 0.000000 0.000000
vt 1.000000 0.000000
vt -0.000000 1.000000
vt 1.000000 0.000000
vt 0.000000 0.125000
vt 0.000000 0.125000
vt 0.000000 0.125000
vn 0.0000 0.0000 -1.0000
vn 1.0000 0.0000 0.0000
vn 0.0000 0.0000 1.0000
vn -1.0000 0.0000 0.0000
vn 0.0000 1.0000 0.0000
vn 0.0000 0.7071 -0.7071
vn 0.0000 -0.7071 0.7071
vn 0.0000 -0.7071 -0.7071
vn 0.0000 0.7071 0.7071
vn 0.0000 -1.0000 0.0000
g Lever_Cube_Support
usemtl Support
s off
f 12/1/1 15/2/1 11/3/1
f 16/4/2 13/5/2 15/6/2
f 14/7/3 9/8/3 13/9/3
f 18/10/4 19/11/4 17/12/4
f 12/13/5 14/7/5 16/14/5
f 20/15/1 23/16/1 19/17/1
f 22/18/3 17/19/3 21/20/3
f 20/21/5 22/22/5 24/23/5
f 12/1/1 16/24/1 15/2/1
f 16/4/2 14/25/2 13/5/2
f 14/7/3 10/26/3 9/8/3
f 18/10/4 20/27/4 19/11/4
f 12/13/5 10/26/5 14/7/5
f 20/15/1 24/28/1 23/16/1
f 22/18/3 18/29/3 17/19/3
f 20/21/5 18/30/5 22/22/5
g Lever_Cube_Interior
usemtl Interior
f 10/31/4 11/32/4 9/33/4
f 24/34/2 21/35/2 23/36/2
f 10/31/4 12/37/4 11/32/4
f 24/34/2 22/38/2 21/35/2
g Lever_Cube_Hub
usemtl Hub
f 28/39/6 31/40/6 27/41/6
f 30/42/7 25/43/7 29/44/7
f 31/45/8 25/46/8 27/47/8
f 28/48/9 30/49/9 32/50/9
f 28/39/6 32/51/6 31/40/6
f 30/42/7 26/52/7 25/43/7
f 31/45/8 29/53/8 25/46/8
f 28/48/9 26/54/9 30/49/9
g Lever_Cube_Lever
usemtl Lever
f 34/55/4 35/56/4 33/57/4
f 36/58/6 39/59/6 35/60/6
f 40/61/2 37/62/2 39/63/2
f 38/64/7 33/65/7 37/66/7
f 36/67/9 38/68/9 40/69/9
f 34/55/4 36/70/4 35/56/4
f 36/58/6 40/71/6 39/59/6
f 40/61/2 38/72/2 37/62/2
f 38/64/7 34/73/7 33/65/7
f 36/67/9 34/74/9 38/68/9
g Lever_Cube_Base
usemtl Base
f 5/75/5 3/76/5 1/77/5
f 3/76/3 8/78/3 4/79/3
f 7/80/4 6/81/4 8/82/4
f 2/83/10 8/82/10 6/84/10
f 1/85/2 4/86/2 2/87/2
f 5/88/1 2/89/1 6/90/1
f 5/75/5 7/91/5 3/76/5
f 3/76/3 7/92/3 8/78/3
f 7/80/4 5/93/4 6/81/4
f 2/83/10 4/86/10 8/82/10
f 1/85/2 3/94/2 4/86/2
f 5/88/1 1/95/1 2/89/1
